<svg enable-background="new 0 0 32 32" viewBox="0 0 32 32" xmlns="http://www.w3.org/2000/svg"><g id="Grid" display="none"/><g id="billboard"/><g id="lighthouse"/><g id="skyscraper"/><g id="stadium"/><g id="church"/><g id="mosque"/><g id="mall"/><g id="hospital"/><g id="store"/><g id="school"/><g id="city_gate"/><g id="factory"/><g id="fire_hydrant"/><g id="city_lights"/><g id="fountain"/><g id="museum"/><g id="tombstone"/><g id="taxi"/><g id="hotel"/><g id="bus"><path d="m30.589 14.227-1.855-4.537c-.646-1.581-2.167-2.603-3.876-2.603h-21.019c-1.51 0-2.739 1.229-2.739 2.739v9.679c0 1.51 1.229 2.739 2.739 2.739h1.78c.404 1.531 1.787 2.669 3.443 2.669s3.039-1.138 3.443-2.669h7.023c.404 1.531 1.787 2.669 3.443 2.669s3.039-1.138 3.443-2.669h1.748c1.51 0 2.739-1.229 2.739-2.739v-3.693c-.001-.546-.106-1.08-.312-1.585zm-3.522-3.856 1.593 3.894h-4.87c-.331 0-.6-.269-.6-.6v-4.777h1.667c.975 0 1.842.582 2.21 1.483zm-15.822 2.099h-3.455c-.331 0-.6-.269-.6-.6v-2.982h4.055zm1.801-3.582h4.054v2.982c0 .331-.269.6-.6.6h-3.454zm-3.984 14.224c-.978 0-1.772-.795-1.772-1.772s.795-1.772 1.772-1.772 1.772.795 1.772 1.772-.795 1.772-1.772 1.772zm13.909 0c-.978 0-1.772-.795-1.772-1.772s.795-1.772 1.772-1.772 1.772.795 1.772 1.772-.795 1.772-1.772 1.772zm5.19-2.669h-1.745c-.401-1.535-1.787-2.677-3.445-2.677s-3.044 1.142-3.445 2.677h-7.019c-.401-1.535-1.787-2.677-3.445-2.677s-3.044 1.142-3.445 2.677h-1.778c-.518 0-.938-.421-.938-.938v-9.679c0-.518.421-.938.938-.938h1.551v2.982c0 1.323 1.077 2.4 2.4 2.4h4.355 4.355c1.323 0 2.4-1.077 2.4-2.4v-2.982h2.489v4.777c0 1.323 1.077 2.4 2.4 2.4h5.31v3.439c.001.518-.42.939-.938.939z"/><path d="m16.917 16.285h-1.834c-.497 0-.9.403-.9.9s.403.9.9.9h1.834c.497 0 .9-.403.9-.9s-.403-.9-.9-.9z"/></g><g id="office"/><g id="house"/><g id="booth_telephone"/><g id="building"/><g id="fuel_station"/></svg>