<svg height="512" viewBox="0 0 128 128" width="512" xmlns="http://www.w3.org/2000/svg"><g><path d="m97.42 29.013-2.92-1.105a11.724 11.724 0 0 0 -10.57-4.2l-8.676 1.159-11.042-10.767a1.749 1.749 0 0 0 -1.759-.412l-5.67 1.83a1.75 1.75 0 0 0 -1.045 2.414l4.245 8.968-20.714 2.769-2-2.326a7.035 7.035 0 0 0 -7.032-2.232l-1.29.32a1.75 1.75 0 0 0 -1.164 2.44l4.517 9.669a7 7 0 0 0 6.357 4.07c.143 0 .286 0 .429-.013l22.343-1.278-1.61 11.481a1.752 1.752 0 0 0 1.715 1.994l5.953.062h.019a1.751 1.751 0 0 0 1.539-.917l7.278-13.466 19.66-1.123a4.826 4.826 0 0 0 1.437-9.335zm-37.665-10.78 2.768-.894 8.321 8.114-7.218.964zm6.714 32.11-2.907-.03 2.083-14.813 9.371-.972zm29.321-15.49-17.512 1 1.392-2.575a1.749 1.749 0 0 0 -1.72-2.572l-14.028 1.456a1.751 1.751 0 0 0 -1.553 1.5l-.439 3.126-23.045 1.312a3.525 3.525 0 0 1 -3.41-2.044l-3.575-7.656a3.647 3.647 0 0 1 2.725 1.226l2.609 3.04a1.749 1.749 0 0 0 1.56.594l45.606-6.086a8.138 8.138 0 0 1 7.617 3.237 1.744 1.744 0 0 0 .786.6l3.391 1.284a1.308 1.308 0 0 1 .851 1.182 1.329 1.329 0 0 1 -1.255 1.376z"/><path d="m112.583 86.8a10.762 10.762 0 0 0 -10.75 10.75c0 6.143 4.961 13.236 9.756 16.545a1.749 1.749 0 0 0 1.988 0c4.8-3.309 9.756-10.4 9.756-16.545a10.762 10.762 0 0 0 -10.75-10.75zm0 23.666c-3.653-2.979-7.25-8.4-7.25-12.916a7.25 7.25 0 0 1 14.5 0c0 4.515-3.597 9.936-7.25 12.915z"/><path d="m15.417 86.8a10.762 10.762 0 0 0 -10.75 10.75c0 6.143 4.961 13.236 9.756 16.545a1.749 1.749 0 0 0 1.988 0c4.795-3.309 9.756-10.4 9.756-16.545a10.762 10.762 0 0 0 -10.75-10.75zm0 23.666c-3.653-2.979-7.25-8.4-7.25-12.916a7.25 7.25 0 0 1 14.5 0c0 4.515-3.597 9.936-7.25 12.915z"/><path d="m28.649 75.583a64.931 64.931 0 0 0 -5.949 4.038 1.75 1.75 0 1 0 2.126 2.779 61.351 61.351 0 0 1 5.626-3.819 1.75 1.75 0 1 0 -1.8-3z"/><path d="m41.67 69.566a67.646 67.646 0 0 0 -6.67 2.657 1.75 1.75 0 1 0 1.467 3.177 64.638 64.638 0 0 1 6.324-2.52 1.75 1.75 0 1 0 -1.121-3.315z"/><path d="m69.974 66.16a71.683 71.683 0 0 0 -7.17-.232 1.75 1.75 0 0 0 -1.719 1.78 1.727 1.727 0 0 0 1.781 1.719c2.266-.04 4.571.034 6.819.221.048 0 .1.006.146.006a1.75 1.75 0 0 0 .143-3.494z"/><path d="m84.068 68.8a69.478 69.478 0 0 0 -6.98-1.686 1.75 1.75 0 0 0 -.645 3.44 65.792 65.792 0 0 1 6.627 1.6 1.734 1.734 0 0 0 .5.073 1.75 1.75 0 0 0 .5-3.428z"/><path d="m55.651 66.416a69.845 69.845 0 0 0 -7.069 1.211 1.75 1.75 0 1 0 .768 3.415 66.592 66.592 0 0 1 6.715-1.151 1.75 1.75 0 1 0 -.414-3.475z"/><path d="m97.312 74.33a66.857 66.857 0 0 0 -6.476-3.118 1.75 1.75 0 0 0 -1.346 3.231 63.515 63.515 0 0 1 6.135 2.957 1.75 1.75 0 1 0 1.687-3.066z"/><path d="m104.242 82.656a1.75 1.75 0 0 0 1.061-3.143q-.928-.707-1.89-1.381a1.75 1.75 0 0 0 -2.013 2.868q.906.636 1.783 1.3a1.74 1.74 0 0 0 1.059.356z"/><path d="m112.583 92.776a4.75 4.75 0 1 0 4.75 4.75 4.756 4.756 0 0 0 -4.75-4.75zm0 6a1.25 1.25 0 1 1 1.25-1.25 1.251 1.251 0 0 1 -1.25 1.25z"/><path d="m15.417 92.776a4.75 4.75 0 1 0 4.75 4.75 4.756 4.756 0 0 0 -4.75-4.75zm0 6a1.25 1.25 0 1 1 1.25-1.25 1.251 1.251 0 0 1 -1.25 1.25z"/></g></svg>