<svg height="512" viewBox="0 0 64 64" width="512" xmlns="http://www.w3.org/2000/svg"><g id="_27-Hotel" data-name="27-Hotel"><path d="m19 57h-2v-46a1 1 0 0 1 1-1h28a1 1 0 0 1 1 1v45h-2v-44h-26z"/><path d="m46 12h-28a1 1 0 0 1 -.97-.758l-1-4a1 1 0 0 1 .97-1.242h30a1 1 0 0 1 .97 1.242l-1 4a1 1 0 0 1 -.97.758zm-27.219-2h26.438l.5-2h-27.438z"/><path d="m46.628 7.929-14.628-5.852-14.628 5.852-.744-1.858 15-6a1.007 1.007 0 0 1 .744 0l15 6z"/><path d="m38.606 7.919-6.606-2.831-6.606 2.831-.788-1.838 7-3a1.007 1.007 0 0 1 .788 0l7 3z"/><path d="m61 60c-1.71 0-3-2.149-3-5s1.29-5 3-5 3 2.149 3 5-1.29 5-3 5zm0-8c-.249 0-1 1.064-1 3s.751 3 1 3 1-1.064 1-3-.751-3-1-3z"/><path d="m60 59h2v4h-2z"/><path d="m53 60c-1.71 0-3-2.149-3-5s1.29-5 3-5 3 2.149 3 5-1.29 5-3 5zm0-8c-.249 0-1 1.064-1 3s.751 3 1 3 1-1.064 1-3-.751-3-1-3z"/><path d="m52 59h2v4h-2z"/><path d="m11 60c-1.71 0-3-2.149-3-5s1.29-5 3-5 3 2.149 3 5-1.29 5-3 5zm0-8c-.249 0-1 1.064-1 3s.751 3 1 3 1-1.064 1-3-.751-3-1-3z"/><path d="m10 59h2v4h-2z"/><path d="m3 60c-1.71 0-3-2.149-3-5s1.29-5 3-5 3 2.149 3 5-1.29 5-3 5zm0-8c-.249 0-1 1.064-1 3s.751 3 1 3 1-1.064 1-3-.751-3-1-3z"/><path d="m2 59h2v4h-2z"/><path d="m48 62h15v2h-15z"/><path d="m1 62h15v2h-15z"/><path d="m40 53h-2v-7h-12v7h-2v-8a1 1 0 0 1 1-1h14a1 1 0 0 1 1 1z"/><path d="m31 45h2v8h-2z"/><path d="m59 50h-2v-30h-11v-2h12a1 1 0 0 1 1 1z"/><path d="m59 19h-2v-3h-2a1 1 0 0 1 -1 1h-4a1 1 0 0 1 -1-1h-3v-2h4a1 1 0 0 1 1 1h2a1 1 0 0 1 1-1h4a1 1 0 0 1 1 1z"/><path d="m53 22h2v4h-2z"/><path d="m49 22h2v4h-2z"/><path d="m53 28h2v4h-2z"/><path d="m49 28h2v4h-2z"/><path d="m53 34h2v4h-2z"/><path d="m49 34h2v4h-2z"/><path d="m53 40h2v4h-2z"/><path d="m49 40h2v4h-2z"/><path d="m53 46h2v4h-2z"/><path d="m49 46h2v4h-2z"/><path d="m7 50h-2v-31a1 1 0 0 1 1-1h12v2h-11z"/><path d="m7 19h-2v-4a1 1 0 0 1 1-1h4a1 1 0 0 1 1 1h2a1 1 0 0 1 1-1h4v2h-3a1 1 0 0 1 -1 1h-4a1 1 0 0 1 -1-1h-2z"/><path d="m9 22h2v4h-2z"/><path d="m13 22h2v4h-2z"/><path d="m9 28h2v4h-2z"/><path d="m13 28h2v4h-2z"/><path d="m9 34h2v4h-2z"/><path d="m13 34h2v4h-2z"/><path d="m9 40h2v4h-2z"/><path d="m13 40h2v4h-2z"/><path d="m9 46h2v4h-2z"/><path d="m13 46h2v4h-2z"/><path d="m23 16h2v6h-2z"/><path d="m27 16h2v6h-2z"/><path d="m31 16h2v6h-2z"/><path d="m35 16h2v6h-2z"/><path d="m39 16h2v6h-2z"/><path d="m23 24h2v6h-2z"/><path d="m27 24h2v6h-2z"/><path d="m31 24h2v6h-2z"/><path d="m35 24h2v6h-2z"/><path d="m39 24h2v6h-2z"/><path d="m23 32h2v6h-2z"/><path d="m27 32h2v6h-2z"/><path d="m31 32h2v6h-2z"/><path d="m35 32h2v6h-2z"/><path d="m39 32h2v6h-2z"/><path d="m44.562 63h-25.124a1.441 1.441 0 0 1 -1.438-1.438 4.443 4.443 0 0 1 3.242-4.153l1.14-.285.6-.9a4.987 4.987 0 0 1 4.159-2.224h10.718a4.987 4.987 0 0 1 4.161 2.227l.622.933 1.306.436a2.994 2.994 0 0 1 2.052 2.845v1.121a1.441 1.441 0 0 1 -1.438 1.438zm-24.474-2h23.912v-.559a1 1 0 0 0 -.684-.949l-1.632-.544a1 1 0 0 1 -.516-.393l-.813-1.219a2.991 2.991 0 0 0 -2.496-1.336h-10.718a2.991 2.991 0 0 0 -2.5 1.336l-.813 1.219a1 1 0 0 1 -.589.415l-1.515.379a2.5 2.5 0 0 0 -1.636 1.651z"/><path d="m24 64a3.01 3.01 0 0 1 -2.6-1.5l1.73-1a1.043 1.043 0 0 0 1.734 0l1.731 1a3.01 3.01 0 0 1 -2.595 1.5z"/><path d="m39 64a3.008 3.008 0 0 1 -2.6-1.507l1.734-1a1.043 1.043 0 0 0 1.735 0l1.73 1a3.01 3.01 0 0 1 -2.599 1.507z"/><path d="m28 59h-5v-2h4v-2h2v3a1 1 0 0 1 -1 1z"/></g></svg>