<?xml version="1.0" encoding="UTF-8" standalone="no"?>
<!-- Created with Inkscape (http://www.inkscape.org/) -->

<svg
   version="1.1"
   id="svg2187"
   xml:space="preserve"
   width="682.66669"
   height="682.66669"
   viewBox="0 0 682.66669 682.66669"
   xmlns="http://www.w3.org/2000/svg"
   xmlns:svg="http://www.w3.org/2000/svg"><defs
     id="defs2191"><clipPath
       clipPathUnits="userSpaceOnUse"
       id="clipPath2201"><path
         d="M 0,512 H 512 V 0 H 0 Z"
         id="path2199" /></clipPath></defs><g
     id="g2193"
     transform="matrix(1.3333333,0,0,-1.3333333,0,682.66667)"><g
       id="g2195"><g
         id="g2197"
         clip-path="url(#clipPath2201)"><g
           id="g2203"
           transform="translate(143.8418,194.5083)"><path
             d="M 0,0 H -21.809 C -31.854,0 -39.998,-8.143 -39.998,-18.188 V -61.94 c 0,-10.046 8.144,-18.189 18.189,-18.189 H 0 c 10.045,0 18.188,8.143 18.188,18.189 v 43.752 C 18.188,-8.143 10.045,0 0,0 Z"
             style="fill:none;stroke:#000000;stroke-width:15;stroke-linecap:round;stroke-linejoin:round;stroke-miterlimit:10;stroke-dasharray:none;stroke-opacity:1"
             id="path2205" /></g><g
           id="g2207"
           transform="translate(143.8418,325.1372)"><path
             d="m 0,0 h -21.809 c -10.045,0 -18.189,-8.144 -18.189,-18.188 v -43.753 c 0,-10.045 8.144,-18.188 18.189,-18.188 H 0 c 10.045,0 18.188,8.143 18.188,18.188 v 43.753 C 18.188,-8.144 10.045,0 0,0 Z"
             style="fill:none;stroke:#000000;stroke-width:15;stroke-linecap:round;stroke-linejoin:round;stroke-miterlimit:10;stroke-dasharray:none;stroke-opacity:1"
             id="path2209" /></g><g
           id="g2211"
           transform="translate(266.9043,325.1372)"><path
             d="m 0,0 h -21.809 c -10.045,0 -18.188,-8.144 -18.188,-18.188 v -43.753 c 0,-10.045 8.143,-18.188 18.188,-18.188 H 0 c 10.045,0 18.188,8.143 18.188,18.188 v 43.753 C 18.188,-8.144 10.045,0 0,0 Z"
             style="fill:none;stroke:#000000;stroke-width:15;stroke-linecap:round;stroke-linejoin:round;stroke-miterlimit:10;stroke-dasharray:none;stroke-opacity:1"
             id="path2213" /></g><g
           id="g2215"
           transform="translate(368.1582,194.5083)"><path
             d="M 0,0 H 21.809 C 31.854,0 39.998,-8.143 39.998,-18.188 V -61.94 c 0,-10.046 -8.144,-18.189 -18.189,-18.189 H 0 c -10.045,0 -18.188,8.143 -18.188,18.189 v 43.752 C -18.188,-8.143 -10.045,0 0,0 Z"
             style="fill:none;stroke:#000000;stroke-width:15;stroke-linecap:round;stroke-linejoin:round;stroke-miterlimit:10;stroke-dasharray:none;stroke-opacity:1"
             id="path2217" /></g><g
           id="g2219"
           transform="translate(368.1582,325.1372)"><path
             d="m 0,0 h 21.809 c 10.045,0 18.189,-8.144 18.189,-18.188 v -43.753 c 0,-10.045 -8.144,-18.188 -18.189,-18.188 H 0 c -10.045,0 -18.188,8.143 -18.188,18.188 v 43.753 C -18.188,-8.144 -10.045,0 0,0 Z"
             style="fill:none;stroke:#000000;stroke-width:15;stroke-linecap:round;stroke-linejoin:round;stroke-miterlimit:10;stroke-dasharray:none;stroke-opacity:1"
             id="path2221" /></g><g
           id="g2223"
           transform="translate(368.2383,471.9995)"><path
             d="m 0,0 v -56.817 c 0.628,-0.107 19.912,0 19.912,0"
             style="fill:none;stroke:#000000;stroke-width:15;stroke-linecap:round;stroke-linejoin:round;stroke-miterlimit:10;stroke-dasharray:none;stroke-opacity:1"
             id="path2225" /></g><g
           id="g2227"
           transform="translate(123.8496,471.9995)"><path
             d="M 0,0 V -56.865"
             style="fill:none;stroke:#000000;stroke-width:15;stroke-linecap:round;stroke-linejoin:round;stroke-miterlimit:10;stroke-dasharray:none;stroke-opacity:1"
             id="path2229" /></g><g
           id="g2231"
           transform="translate(163.2002,471.9995)"><path
             d="M 0,0 V -56.865"
             style="fill:none;stroke:#000000;stroke-width:15;stroke-linecap:round;stroke-linejoin:round;stroke-miterlimit:10;stroke-dasharray:none;stroke-opacity:1"
             id="path2233" /></g><g
           id="g2235"
           transform="translate(123.8496,444.5425)"><path
             d="M 0,0 H 39.351"
             style="fill:none;stroke:#000000;stroke-width:15;stroke-linecap:round;stroke-linejoin:round;stroke-miterlimit:10;stroke-dasharray:none;stroke-opacity:1"
             id="path2237" /></g><g
           id="g2239"
           transform="translate(341.4658,471.4805)"><path
             d="M 0,0 H -23.742 V -56.346 H 0"
             style="fill:none;stroke:#000000;stroke-width:15;stroke-linecap:round;stroke-linejoin:round;stroke-miterlimit:10;stroke-dasharray:none;stroke-opacity:1"
             id="path2241" /></g><g
           id="g2243"
           transform="translate(339.7153,443.3076)"><path
             d="M 0,0 H -21.991"
             style="fill:none;stroke:#000000;stroke-width:15;stroke-linecap:round;stroke-linejoin:round;stroke-miterlimit:10;stroke-dasharray:none;stroke-opacity:1"
             id="path2245" /></g><g
           id="g2247"
           transform="translate(260.2593,471.9995)"><path
             d="M 0,0 H 31.404"
             style="fill:none;stroke:#000000;stroke-width:15;stroke-linecap:round;stroke-linejoin:round;stroke-miterlimit:10;stroke-dasharray:none;stroke-opacity:1"
             id="path2249" /></g><g
           id="g2251"
           transform="translate(275.8979,470.1836)"><path
             d="M 0,0 V -55.049"
             style="fill:none;stroke:#000000;stroke-width:15;stroke-linecap:round;stroke-linejoin:round;stroke-miterlimit:10;stroke-dasharray:none;stroke-opacity:1"
             id="path2253" /></g><g
           id="g2255"
           transform="translate(243.7129,443.5669)"><path
             d="m 0,0 c 0,-15.703 -12.73,-28.432 -28.433,-28.432 -15.702,0 -28.432,12.729 -28.432,28.432 0,15.703 12.73,28.433 28.432,28.433 C -12.73,28.433 0,15.703 0,0 Z"
             style="fill:none;stroke:#000000;stroke-width:15;stroke-linecap:round;stroke-linejoin:round;stroke-miterlimit:10;stroke-dasharray:none;stroke-opacity:1"
             id="path2257" /></g><g
           id="g2259"
           transform="translate(113.5703,383.1187)"><path
             d="m 0,0 h 284.859 c 9.055,0 17.58,-2.254 25.06,-6.218 v 87.099 c 0,22.368 -18.132,40.5 -40.501,40.5 H 15.44 c -22.367,0 -40.5,-18.132 -40.5,-40.5 V -6.218 C -17.58,-2.254 -9.055,0 0,0 Z"
             style="fill:none;stroke:#000000;stroke-width:15;stroke-linecap:round;stroke-linejoin:round;stroke-miterlimit:10;stroke-dasharray:none;stroke-opacity:1"
             id="path2261" /></g><g
           id="g2263"
           transform="translate(59.9644,146.6641)"><path
             d="m 0,0 v -72.927 c 1.162,0.134 2.341,0.21 3.539,0.21 h 384.994 c 1.197,0 2.376,-0.076 3.538,-0.21 v 179.795"
             style="fill:none;stroke:#000000;stroke-width:15;stroke-linecap:round;stroke-linejoin:round;stroke-miterlimit:10;stroke-dasharray:none;stroke-opacity:1"
             id="path2265" /></g><g
           id="g2267"
           transform="translate(452.0356,283.5322)"><path
             d="m 0,0 v 45.981 c 0,29.605 -24,53.605 -53.606,53.605 h -284.859 c -29.606,0 -53.606,-24 -53.606,-53.605 v -152.849"
             style="fill:none;stroke:#000000;stroke-width:15;stroke-linecap:round;stroke-linejoin:round;stroke-miterlimit:10;stroke-dasharray:none;stroke-opacity:1"
             id="path2269" /></g><g
           id="g2271"
           transform="translate(306.0903,73.9473)"><path
             d="m 0,0 v 95.521 c 0,13.83 -11.211,25.04 -25.04,25.04 h -50.101 c -13.829,0 -25.04,-11.21 -25.04,-25.04 l 0,-95.521 z"
             style="fill:none;stroke:#000000;stroke-width:15;stroke-linecap:round;stroke-linejoin:round;stroke-miterlimit:10;stroke-dasharray:none;stroke-opacity:1"
             id="path2273" /></g><g
           id="g2275"
           transform="translate(448.4971,73.9473)"><path
             d="m 0,0 h -384.994 c -16.891,0 -30.585,-13.693 -30.585,-30.584 V -49.45 c 0,-9.387 7.61,-16.997 16.998,-16.997 H 13.587 c 9.388,0 16.997,7.61 16.997,16.997 v 18.866 C 30.584,-13.693 16.891,0 0,0 Z"
             style="fill:none;stroke:#000000;stroke-width:15;stroke-linecap:round;stroke-linejoin:round;stroke-miterlimit:10;stroke-dasharray:none;stroke-opacity:1"
             id="path2277" /></g></g></g></g></svg>
